<svg xmlns="http://www.w3.org/2000/svg" viewBox="0 0 178.008 55.414"><path data-name="Tracé 12" d="M0 19.542c0 11.115 7.36 20.2 18.1 20.2a25.323 25.323 0 0 0 9.511-1.9l-1.728-4.28a23.51 23.51 0 0 1-6.882 1.448c-8.787 0-13.369-7.435-13.369-15.17 0-9.989 5.859-14.9 13.745-14.9 1.952 0 6.636.543 8.287 1.37V1.944A32.253 32.253 0 0 0 17.875.162C8.713.162 0 5.944 0 19.538" fill="#a81815"/><path d="M42.203 0a50.6 50.6 0 0 0-6.23.36c-1.83.226-3.64.57-5.44.963v25.285l5.635 3.014V5.278a53.172 53.172 0 0 1 5.676-.377A18.919 18.919 0 0 1 49.22 6.19c3.352 1.406 5.964 3.364 7.4 6.69a19.14 19.14 0 0 1 .572 12.544 12.978 12.978 0 0 1-6.855 8.496 12.775 12.775 0 0 1-5.318 1.137 13.139 13.139 0 0 1-1.848-.129 22.151 22.151 0 0 1-7-2.5l-5.635-3.146V55.26h5.635V37.235a23.2 23.2 0 0 0 8.324 2.476c.51.032 1.02.051 1.531.051a19.093 19.093 0 0 0 7.008-1.379c5.35-2.122 8.82-6.99 10.026-12.511a25.045 25.045 0 0 0-.047-10.483h-.004a19.737 19.737 0 0 0-7.58-12.191 18.737 18.737 0 0 0-9.963-3.12A70.877 70.877 0 0 0 42.203 0zm82.577.15a14.9 14.9 0 0 0-10.6 4.088 16.536 16.536 0 0 1 2.255 5.312 9.472 9.472 0 0 1 8.199-4.67v.002c5.558 0 9.763 4.655 9.763 12.617h-17.162v4.432h22.645C140.255 8.937 135.224.15 124.779.15zm-49.8.068c-5.32 0-9.44 1.498-15.44 3.82v.174a22.734 22.734 0 0 1 5.389 10.77c.088.418.162.836.232 1.254V7.563A22.839 22.839 0 0 1 75.13 4.94c5.022 0 9.443 1.349 9.443 11.168V38.82h5.621V7.563a22.773 22.773 0 0 1 9.897-2.623c5.097 0 9.443 1.349 9.443 11.168v22.715h5.623V16.184c0-12.893-5.773-15.965-14.244-15.965l.002-.002c-4.948 0-8.545 1.347-14.39 4.047A16.5 16.5 0 0 0 74.978.217zm-9.827 25.078c-.058.333-.114.667-.185.994a20.238 20.238 0 0 1-5.436 10.1v2.434h5.621zm52.084 5.59v6.6a16.562 16.562 0 0 0 8.676 2.262 24.579 24.579 0 0 0 12.84-3.38v-5.173c-2.824 1.548-7.886 3.822-12.016 3.822a11.744 11.744 0 0 1-9.5-4.13zM71.668 44.68l-.81 1.608h1.208L73.1 44.68zm13.908.002l-.81 1.608h1.21l1.034-1.608zM44.38 46.686c-2.862 0-4.063 1.915-4.063 4.215 0 2.822 1.868 4.5 4.075 4.5a3.97 3.97 0 0 0 2.146-.55l-.539-.895a3.715 3.715 0 0 1-1.525.423l.006-.004c-1.502 0-2.784-1.432-2.784-3.416 0-1.679.86-3.263 2.76-3.263a2.84 2.84 0 0 1 1.455.387l.5-.844a3.884 3.884 0 0 0-2.031-.553zm5.832.002c-1.933 0-3.709 1.419-3.709 4.377 0 2.84 1.749 4.332 3.709 4.332s3.732-1.491 3.732-4.332c0-2.97-1.8-4.377-3.732-4.377zm27.482.002a21.959 21.959 0 0 0-2.453.174v8.36a21.8 21.8 0 0 0 2.453.175c2.36 0 4-.892 4-4.354s-1.643-4.355-4-4.355zm38.97.002c-1.933 0-3.712 1.419-3.712 4.377 0 2.84 1.75 4.332 3.711 4.332 1.961 0 3.733-1.491 3.733-4.332 0-2.97-1.8-4.377-3.733-4.377zm18.284.004a21.97 21.97 0 0 0-2.453.176v8.357a21.807 21.807 0 0 0 2.453.176c2.36 0 4-.892 4-4.354s-1.643-4.355-4-4.355zm14.088.002c-1.492 0-2.806.857-2.806 2.207 0 .845.247 1.667 1.832 2.406l1.056.492c.54.247 1.21.658 1.21 1.4a1.209 1.209 0 0 1-1.315 1.151 4.12 4.12 0 0 1-2.242-.846l-.6.87a4.618 4.618 0 0 0 2.84 1.03 2.52 2.52 0 0 0 2.676-2.51 2.579 2.579 0 0 0-1.81-2.3l-.9-.4c-.81-.364-1.42-.79-1.42-1.375 0-.74.73-1.066 1.481-1.066a4.251 4.251 0 0 1 1.807.5l.515-.89a4.389 4.389 0 0 0-2.324-.67zm-56.914.004a19.543 19.543 0 0 0-2.969.236v8.322h1.37v-3.369a14.231 14.231 0 0 0 1.738.12h.035l1.525 3.25H95.3l-1.654-3.487a2.45 2.45 0 0 0 1.6-2.43c0-2.066-1.445-2.642-3.124-2.642zm66.522.002a19.543 19.543 0 0 0-2.971.234v8.324l1.373-.002v-3.369a14.229 14.229 0 0 0 1.736.12c1.726 0 2.983-.929 2.983-2.667 0-2.066-1.443-2.64-3.121-2.64zm-103.682.101v8.451h1.291v-6.49l3.908 6.49h1.55v-8.45h-1.29v6.599l-3.969-6.6zm8.184 0v8.451h1.373l.005-3.99h3.217v-1.01h-3.222v-2.441h3.662v-1.01zm5.783 0v8.451H74.2v-1.002h-3.9l.008-2.859h3.45v-1.01h-3.45v-2.572h3.898v-1.008zm13.91 0v8.453h5.27v-1.004h-3.901l.008-2.859h3.451v-1.01h-3.459v-2.57h3.9v-1.01zm16.084.004l-3.016 8.451h1.362l.808-2.36h3.252l.81 2.36h1.362l-3.016-8.451zm3.814 0l.008 1.01h2.828v7.441h1.356v-7.44h2.83v-1.01zm7.832 0l.004 8.451h1.356v-8.45zm10.838 0v8.451h1.291v-6.49l3.91 6.49h1.55v-8.45h-1.292v6.6l-3.967-6.6zm41.26 0v8.451h1.326v-6.068l2.444 4.306h1.126l2.436-4.306v6.068h1.326v-8.45h-1.3l-3.03 5.457-3.027-5.457zm10.063 0v8.451h5.269v-1.006H174.1l.008-2.855h3.45v-1.01h-3.45v-2.572h3.9v-1.008zm-32.631.006v8.453h5.271v-1.014h-3.9v-2.85h3.45v-1.009h-3.45v-2.57h3.9v-1.01zm-62.332.879c1.784 0 2.57 1.185 2.57 3.346 0 2.16-.786 3.347-2.57 3.347a7.651 7.651 0 0 1-1.15-.096v-6.5a7.8 7.8 0 0 1 1.15-.093zm57.252.008c1.784 0 2.57 1.184 2.57 3.345 0 2.161-.786 3.346-2.57 3.346a7.668 7.668 0 0 1-1.15-.094v-6.5a7.815 7.815 0 0 1 1.15-.093zm-42.97.011c1 0 1.82.446 1.82 1.643 0 1.245-.856 1.642-1.983 1.642v-.003a7.319 7.319 0 0 1-1.362-.116v-3.025a8.832 8.832 0 0 1 1.526-.14zm66.524 0c1 0 1.819.446 1.819 1.643 0 1.245-.858 1.642-1.985 1.642l.002.008a7.317 7.317 0 0 1-1.361-.117v-3.035a8.83 8.83 0 0 1 1.525-.14zm-108.361.02c1.068 0 2.324 1.126 2.324 3.332 0 2.37-1.244 3.275-2.324 3.275-1.315 0-2.3-.927-2.3-3.275 0-2.218.986-3.332 2.3-3.332zm66.45.004c1.067 0 2.323 1.126 2.323 3.332 0 2.37-1.244 3.275-2.324 3.275-1.315 0-2.299-.927-2.299-3.275 0-2.218.984-3.332 2.3-3.332zm-16.964.375l1.315 3.851h-2.63z" fill="#114d61"/></svg>