<?xml version="1.0" encoding="UTF-8"?>
<svg id="Calque_1" data-name="Calque 1" xmlns="http://www.w3.org/2000/svg" viewBox="0 0 439.6 87.5">
  <defs>
    <style>
      .cls-1 {
        fill: #449793;
        font-family: Avenir-Black, Avenir;
        font-size: 9.02px;
        font-weight: 800;
      }

      .cls-1, .cls-2 {
        isolation: isolate;
      }

      .cls-3 {
        fill: #2fcb92;
      }

      .cls-3, .cls-4 {
        stroke-width: 0px;
      }

      .cls-4 {
        fill: #ffffff;
      }
    </style>
  </defs>
  <g class="cls-2">
    <path class="cls-3" d="m.1,5.4h26.6c6.5,0,12.6.7,18.4,2.2,5.8,1.4,10.9,3.8,15.2,7,4.3,3.2,7.8,7.4,10.3,12.6,2.5,5.2,3.8,11.4,3.8,18.8,0,6.5-1.2,12.3-3.7,17.3s-5.8,9.1-10,12.5-9,5.9-14.5,7.7c-5.5,1.7-11.2,2.6-17.2,2.6H0V5.4h.1Zm17.8,64.3h9.2c4.1,0,7.9-.4,11.4-1.3,3.5-.8,6.6-2.2,9.2-4.2,2.6-1.9,4.6-4.5,6.1-7.6s2.2-7,2.2-11.6c0-3.9-.7-7.4-2.2-10.3-1.5-2.9-3.5-5.3-6-7.2s-5.4-3.3-8.8-4.3c-3.4-.9-6.9-1.4-10.6-1.4h-10.5v47.9Z"/>
    <path class="cls-3" d="m136.8,76.5c-2.7,3.5-6.2,6.2-10.4,8.1s-8.5,2.8-13,2.8-8.3-.7-12-2c-3.8-1.4-7-3.3-9.8-5.9-2.8-2.5-5-5.6-6.5-9.2-1.6-3.6-2.4-7.6-2.4-12s.8-8.4,2.4-12c1.6-3.6,3.8-6.6,6.5-9.2,2.8-2.5,6-4.5,9.8-5.9s7.8-2,12-2c3.9,0,7.5.7,10.8,2,3.2,1.4,6,3.3,8.2,5.9,2.2,2.5,4,5.6,5.2,9.2,1.2,3.6,1.8,7.6,1.8,12v5.4h-39.6c.7,3.3,2.2,5.9,4.4,7.8,2.3,1.9,5.1,2.9,8.4,2.9,2.8,0,5.2-.6,7.1-1.9,1.9-1.3,3.6-2.9,5.1-4.8l12,8.8Zm-14.5-24.4c.1-2.9-.9-5.4-2.8-7.4-2-2-4.5-3.1-7.6-3.1-1.9,0-3.6.3-5,.9-1.4.6-2.7,1.4-3.7,2.3-1,1-1.8,2-2.4,3.3-.6,1.3-.9,2.6-1,3.9h22.5v.1Z"/>
  </g>
  <text class="cls-1" transform="translate(126.68 83.05)"><tspan x="0" y="0"> </tspan></text>
  <g class="cls-2">
    <path class="cls-4" d="m154.6,5.4h29.9c4.2,0,8.1.4,11.8,1.1,3.7.8,7,2.1,9.7,3.9,2.8,1.9,5,4.4,6.6,7.5,1.6,3.2,2.4,7.1,2.4,11.9s-.8,8.7-2.3,11.8c-1.5,3.2-3.6,5.7-6.3,7.6-2.7,1.9-5.8,3.2-9.5,4-3.6.8-7.6,1.2-11.8,1.2h-13v31.4h-17.8V5.4h.3Zm17.8,34.2h11.8c1.6,0,3.1-.2,4.6-.5s2.8-.8,4-1.5,2.1-1.7,2.8-3c.7-1.3,1.1-2.8,1.1-4.7,0-2-.5-3.7-1.4-5-1-1.3-2.2-2.2-3.6-2.9-1.5-.7-3.1-1.1-5-1.3-1.8-.2-3.6-.3-5.2-.3h-9.1v19.2h0Z"/>
    <path class="cls-4" d="m224.4,0h17.1v86.1h-17.1V0Z"/>
    <path class="cls-4" d="m288.5,79.1h-.2c-1.9,3-4.4,5.1-7.6,6.4s-6.5,1.9-10,1.9c-2.6,0-5.1-.4-7.5-1.1s-4.5-1.8-6.3-3.2c-1.8-1.4-3.3-3.2-4.3-5.4-1.1-2.1-1.6-4.6-1.6-7.4,0-3.2.6-5.9,1.8-8.1,1.2-2.2,2.8-4,4.8-5.5,2-1.4,4.3-2.6,6.9-3.4s5.3-1.4,8-1.8c2.8-.4,5.5-.6,8.3-.7s5.3-.1,7.7-.1c0-3-1.1-5.4-3.2-7.2-2.2-1.8-4.7-2.7-7.7-2.7-2.8,0-5.4.6-7.7,1.8-2.3,1.2-4.4,2.8-6.2,4.8l-9.1-9.3c3.2-3,6.9-5.2,11.2-6.7,4.3-1.5,8.7-2.2,13.2-2.2,5,0,9.1.6,12.4,1.9,3.2,1.3,5.8,3.1,7.7,5.5,1.9,2.4,3.3,5.4,4,8.9.8,3.5,1.1,7.6,1.1,12.2v28.1h-15.7v-6.7Zm-4.2-17.3c-1.3,0-2.9.1-4.8.2s-3.8.4-5.6,1c-1.8.5-3.3,1.3-4.6,2.4-1.3,1.1-1.9,2.5-1.9,4.4,0,2,.9,3.6,2.6,4.6s3.6,1.5,5.5,1.5c1.7,0,3.3-.2,4.8-.7,1.6-.5,2.9-1.1,4.2-1.9,1.2-.8,2.2-1.9,2.9-3.2.7-1.3,1.1-2.8,1.1-4.6v-3.7h-4.2Z"/>
    <path class="cls-4" d="m314.9,30.7h16.4v7.5h.2c.5-1.1,1.3-2.1,2.3-3.2,1-1.1,2.2-2,3.5-2.8,1.4-.8,2.9-1.5,4.7-2,1.7-.5,3.6-.8,5.7-.8,4.3,0,7.8.7,10.5,2s4.7,3.2,6.2,5.5c1.5,2.4,2.5,5.1,3,8.3.5,3.2.8,6.6.8,10.4v30.5h-17.1v-27.2c0-1.6-.1-3.2-.2-5-.1-1.7-.5-3.3-1-4.7-.6-1.4-1.4-2.6-2.6-3.5s-2.9-1.4-5.1-1.4-4,.4-5.4,1.2c-1.4.8-2.4,1.9-3.1,3.2-.7,1.3-1.2,2.8-1.4,4.5-.2,1.7-.3,3.4-.3,5.2v27.6h-17.1V30.7Z"/>
    <path class="cls-4" d="m378.2,58.4c0-4.4.8-8.4,2.4-12s3.8-6.6,6.5-9.2c2.8-2.5,6-4.5,9.8-5.9s7.8-2,12-2,8.3.7,12,2c3.8,1.4,7,3.3,9.8,5.9,2.8,2.5,5,5.6,6.5,9.2,1.6,3.6,2.4,7.6,2.4,12s-.8,8.4-2.4,12c-1.6,3.6-3.8,6.6-6.5,9.2-2.8,2.5-6,4.5-9.8,5.9s-7.8,2-12,2-8.3-.7-12-2c-3.8-1.4-7-3.3-9.8-5.9-2.8-2.5-5-5.6-6.5-9.2-1.6-3.6-2.4-7.6-2.4-12Zm17.1,0c0,4.2,1.2,7.6,3.6,10.1,2.4,2.6,5.8,3.9,10.1,3.9s7.7-1.3,10.1-3.9,3.6-6,3.6-10.1-1.2-7.6-3.6-10.1c-2.4-2.6-5.8-3.9-10.1-3.9s-7.7,1.3-10.1,3.9c-2.4,2.5-3.6,5.9-3.6,10.1Z"/>
  </g>
</svg>