<svg width="168" height="32" viewBox="0 0 168 32" fill="none" xmlns="http://www.w3.org/2000/svg">
<g clip-path="url(#clip0_336_8041)">
<path d="M159.419 24.11C158.275 24.11 157.234 23.89 156.295 23.45C155.371 23.01 154.572 22.416 153.897 21.668C153.237 20.9053 152.724 20.0547 152.357 19.116C151.99 18.1627 151.807 17.1873 151.807 16.19C151.807 15.1487 151.998 14.1587 152.379 13.22C152.775 12.2667 153.31 11.4233 153.985 10.69C154.674 9.94201 155.481 9.35534 156.405 8.93001C157.344 8.49001 158.37 8.27001 159.485 8.27001C160.614 8.27001 161.641 8.49734 162.565 8.95201C163.504 9.40667 164.303 10.0153 164.963 10.778C165.623 11.5407 166.136 12.3913 166.503 13.33C166.87 14.2687 167.053 15.2367 167.053 16.234C167.053 17.2607 166.862 18.2507 166.481 19.204C166.1 20.1427 165.564 20.986 164.875 21.734C164.2 22.4673 163.394 23.0467 162.455 23.472C161.531 23.8973 160.519 24.11 159.419 24.11ZM154.887 16.19C154.887 16.8647 154.99 17.5173 155.195 18.148C155.4 18.7787 155.694 19.3433 156.075 19.842C156.471 20.326 156.948 20.7147 157.505 21.008C158.077 21.2867 158.722 21.426 159.441 21.426C160.174 21.426 160.827 21.2793 161.399 20.986C161.971 20.678 162.448 20.2747 162.829 19.776C163.21 19.2627 163.496 18.698 163.687 18.082C163.892 17.4513 163.995 16.8207 163.995 16.19C163.995 15.5153 163.885 14.87 163.665 14.254C163.46 13.6233 163.159 13.066 162.763 12.582C162.382 12.0833 161.905 11.6947 161.333 11.416C160.776 11.1227 160.145 10.976 159.441 10.976C158.693 10.976 158.033 11.13 157.461 11.438C156.904 11.7313 156.434 12.1273 156.053 12.626C155.672 13.1247 155.378 13.682 155.173 14.298C154.982 14.914 154.887 15.5447 154.887 16.19Z" fill="white"/>
<path d="M136.918 16.08C136.918 15.1267 137.087 14.1953 137.424 13.286C137.776 12.362 138.282 11.526 138.942 10.778C139.602 10.0153 140.409 9.41401 141.362 8.97401C142.316 8.51934 143.401 8.29201 144.618 8.29201C146.056 8.29201 147.295 8.60734 148.336 9.23801C149.392 9.86867 150.177 10.69 150.69 11.702L148.358 13.308C148.094 12.7213 147.75 12.2593 147.324 11.922C146.899 11.57 146.444 11.328 145.96 11.196C145.476 11.0493 145 10.976 144.53 10.976C143.768 10.976 143.1 11.13 142.528 11.438C141.971 11.746 141.502 12.1493 141.12 12.648C140.739 13.1467 140.453 13.704 140.262 14.32C140.086 14.936 139.998 15.552 139.998 16.168C139.998 16.8573 140.108 17.5247 140.328 18.17C140.548 18.8007 140.856 19.3653 141.252 19.864C141.663 20.348 142.147 20.7367 142.704 21.03C143.276 21.3087 143.9 21.448 144.574 21.448C145.058 21.448 145.55 21.3673 146.048 21.206C146.547 21.0447 147.009 20.788 147.434 20.436C147.86 20.084 148.19 19.6293 148.424 19.072L150.91 20.502C150.602 21.2793 150.096 21.9393 149.392 22.482C148.703 23.0247 147.926 23.4353 147.06 23.714C146.195 23.9927 145.337 24.132 144.486 24.132C143.372 24.132 142.352 23.9047 141.428 23.45C140.504 22.9807 139.705 22.3647 139.03 21.602C138.37 20.8247 137.85 19.9593 137.468 19.006C137.102 18.038 136.918 17.0627 136.918 16.08Z" fill="white"/>
<path d="M132.366 24L125.018 16.212C124.402 15.552 123.903 14.9873 123.522 14.518C123.155 14.034 122.891 13.594 122.73 13.198C122.569 12.802 122.488 12.3767 122.488 11.922C122.488 11.174 122.671 10.5213 123.038 9.96401C123.419 9.39201 123.933 8.95201 124.578 8.64401C125.238 8.33601 125.971 8.18201 126.778 8.18201C127.511 8.18201 128.186 8.31401 128.802 8.57801C129.433 8.82734 129.946 9.20867 130.342 9.72201C130.738 10.2353 130.936 10.8733 130.936 11.636C130.936 12.3253 130.76 12.9487 130.408 13.506C130.071 14.0633 129.616 14.5767 129.044 15.046C128.472 15.5153 127.827 15.97 127.108 16.41C126.58 16.7473 126.096 17.0773 125.656 17.4C125.231 17.7227 124.893 18.0673 124.644 18.434C124.409 18.786 124.292 19.1747 124.292 19.6C124.292 20.0107 124.409 20.392 124.644 20.744C124.879 21.096 125.201 21.382 125.612 21.602C126.037 21.8073 126.507 21.91 127.02 21.91C127.651 21.91 128.259 21.756 128.846 21.448C129.447 21.14 129.983 20.7073 130.452 20.15C130.921 19.578 131.288 18.896 131.552 18.104C131.831 17.312 131.97 16.4247 131.97 15.442H134.368C134.368 16.8353 134.155 18.0747 133.73 19.16C133.305 20.2307 132.733 21.1473 132.014 21.91C131.295 22.658 130.481 23.23 129.572 23.626C128.663 24.022 127.717 24.22 126.734 24.22C125.663 24.22 124.732 24.0073 123.94 23.582C123.148 23.142 122.532 22.57 122.092 21.866C121.667 21.162 121.454 20.3993 121.454 19.578C121.454 18.7567 121.645 18.038 122.026 17.422C122.407 16.806 122.891 16.2633 123.478 15.794C124.065 15.31 124.651 14.8847 125.238 14.518C125.883 14.1073 126.426 13.7627 126.866 13.484C127.306 13.1907 127.643 12.9047 127.878 12.626C128.113 12.3327 128.23 12.0173 128.23 11.68C128.23 11.284 128.091 10.9687 127.812 10.734C127.548 10.4847 127.203 10.36 126.778 10.36C126.455 10.36 126.169 10.426 125.92 10.558C125.685 10.69 125.502 10.866 125.37 11.086C125.238 11.306 125.172 11.5553 125.172 11.834C125.172 12.0393 125.231 12.2447 125.348 12.45C125.48 12.6553 125.7 12.9267 126.008 13.264C126.331 13.5867 126.771 14.0487 127.328 14.65L136.238 24H132.366Z" fill="white"/>
<path d="M118.016 12.472C117.913 12.3693 117.723 12.23 117.444 12.054C117.18 11.878 116.85 11.7093 116.454 11.548C116.073 11.3867 115.655 11.2473 115.2 11.13C114.745 10.998 114.283 10.932 113.814 10.932C112.993 10.932 112.369 11.086 111.944 11.394C111.533 11.702 111.328 12.1347 111.328 12.692C111.328 13.1173 111.46 13.4547 111.724 13.704C111.988 13.9533 112.384 14.166 112.912 14.342C113.44 14.518 114.1 14.7087 114.892 14.914C115.919 15.1633 116.806 15.4713 117.554 15.838C118.317 16.19 118.896 16.6593 119.292 17.246C119.703 17.818 119.908 18.5807 119.908 19.534C119.908 20.37 119.754 21.0887 119.446 21.69C119.138 22.2767 118.713 22.7533 118.17 23.12C117.627 23.4867 117.011 23.758 116.322 23.934C115.633 24.0953 114.899 24.176 114.122 24.176C113.345 24.176 112.567 24.0953 111.79 23.934C111.013 23.7727 110.265 23.5453 109.546 23.252C108.827 22.944 108.167 22.5773 107.566 22.152L108.908 19.534C109.04 19.666 109.275 19.842 109.612 20.062C109.949 20.2673 110.36 20.48 110.844 20.7C111.328 20.9053 111.856 21.0813 112.428 21.228C113 21.3747 113.579 21.448 114.166 21.448C114.987 21.448 115.611 21.3087 116.036 21.03C116.461 20.7513 116.674 20.3553 116.674 19.842C116.674 19.3727 116.505 19.006 116.168 18.742C115.831 18.478 115.361 18.2507 114.76 18.06C114.159 17.8547 113.447 17.6347 112.626 17.4C111.643 17.1213 110.822 16.8133 110.162 16.476C109.502 16.124 109.011 15.684 108.688 15.156C108.365 14.628 108.204 13.968 108.204 13.176C108.204 12.1053 108.453 11.2107 108.952 10.492C109.465 9.75867 110.155 9.20867 111.02 8.84201C111.885 8.46067 112.846 8.27001 113.902 8.27001C114.635 8.27001 115.325 8.35067 115.97 8.51201C116.63 8.67334 117.246 8.88601 117.818 9.15001C118.39 9.41401 118.903 9.70001 119.358 10.008L118.016 12.472Z" fill="white"/>
<path d="M102.415 24V8.38001H105.451V24H102.415Z" fill="white"/>
<path d="M92.9636 24.11C91.9516 24.11 90.991 23.9047 90.0816 23.494C89.187 23.0833 88.395 22.5187 87.7056 21.8C87.031 21.0667 86.503 20.216 86.1216 19.248C85.7403 18.28 85.5496 17.2313 85.5496 16.102C85.5496 15.0313 85.7403 14.0267 86.1216 13.088C86.503 12.1347 87.0383 11.2987 87.7276 10.58C88.417 9.86134 89.2236 9.29667 90.1476 8.88601C91.0716 8.47534 92.0763 8.27001 93.1616 8.27001C94.6283 8.27001 95.8823 8.58534 96.9236 9.21601C97.9796 9.83201 98.7716 10.6533 99.2996 11.68L97.0336 13.352C96.6376 12.5747 96.0803 11.9807 95.3616 11.57C94.6576 11.1593 93.8876 10.954 93.0516 10.954C92.3916 10.954 91.7903 11.0933 91.2476 11.372C90.705 11.6507 90.2356 12.032 89.8396 12.516C89.4436 13 89.1356 13.5573 88.9156 14.188C88.7103 14.8187 88.6076 15.486 88.6076 16.19C88.6076 16.938 88.7176 17.6273 88.9376 18.258C89.1723 18.8887 89.495 19.4387 89.9056 19.908C90.331 20.3773 90.8223 20.7513 91.3796 21.03C91.937 21.294 92.553 21.426 93.2276 21.426C94.0196 21.426 94.775 21.2207 95.4936 20.81C96.227 20.3993 96.909 19.798 97.5396 19.006V21.998C96.2343 23.406 94.709 24.11 92.9636 24.11ZM97.3196 18.192H94.1736V15.97H99.8276V24H97.3196V18.192Z" fill="white"/>
<path d="M72.7303 13.968V24H69.6943V8.38001H72.1143L80.1883 18.676V8.40201H83.2243V24H80.6943L72.7303 13.968Z" fill="white"/>
<path d="M59.8163 24.11C58.5697 24.11 57.5063 23.9047 56.6263 23.494C55.761 23.0687 55.057 22.4893 54.5143 21.756C53.9863 21.0227 53.5977 20.194 53.3483 19.27C53.099 18.3313 52.9743 17.356 52.9743 16.344V8.38001H56.0103V16.344C56.0103 16.9893 56.069 17.62 56.1863 18.236C56.3183 18.8373 56.531 19.38 56.8243 19.864C57.1177 20.348 57.5063 20.7293 57.9903 21.008C58.4743 21.2867 59.0757 21.426 59.7943 21.426C60.5277 21.426 61.1363 21.2867 61.6203 21.008C62.119 20.7147 62.5077 20.326 62.7863 19.842C63.0797 19.358 63.2923 18.8153 63.4243 18.214C63.5563 17.598 63.6223 16.9747 63.6223 16.344V8.38001H66.6363V16.344C66.6363 17.4147 66.5043 18.4193 66.2403 19.358C65.991 20.2967 65.5877 21.1253 65.0303 21.844C64.4877 22.548 63.7837 23.1053 62.9183 23.516C62.053 23.912 61.019 24.11 59.8163 24.11Z" fill="white"/>
<path d="M38.6279 24V8.38001H45.5359C46.2546 8.38001 46.9146 8.52667 47.5159 8.82001C48.1319 9.11334 48.6599 9.50934 49.0999 10.008C49.5546 10.5067 49.8993 11.064 50.1339 11.68C50.3833 12.296 50.5079 12.9267 50.5079 13.572C50.5079 14.232 50.3906 14.87 50.1559 15.486C49.9359 16.0873 49.6133 16.6153 49.1879 17.07C48.7626 17.5247 48.2639 17.8767 47.6919 18.126L51.2559 24H47.9119L44.6999 18.764H41.6639V24H38.6279ZM41.6639 16.102H45.4699C45.8513 16.102 46.1886 15.992 46.4819 15.772C46.7753 15.5373 47.0099 15.2293 47.1859 14.848C47.3619 14.4667 47.4499 14.0413 47.4499 13.572C47.4499 13.0733 47.3473 12.6407 47.1419 12.274C46.9366 11.8927 46.6726 11.592 46.3499 11.372C46.0419 11.152 45.7046 11.042 45.3379 11.042H41.6639V16.102Z" fill="white"/>
<path d="M6.34085 13.4669C6.83078 11.3672 7.99351 9.92452 9.25671 8.66132L18.3362 -0.201416H15.1133L7.48439 7.02333C6.69418 7.81354 5.04378 9.69536 4.53014 11.6269L0 7.02333V10.2463L10.3167 21.1342C11.6876 22.5967 13.57 23.4739 15.5716 23.5827L13.6683 25.4577C11.5686 24.9667 10.1259 23.8039 8.86274 22.5419L0 13.4579V16.6808L7.22475 24.3085C8.01496 25.0988 9.89678 26.7492 11.8283 27.2639L7.22475 31.7986H10.4477L21.3356 21.4819C22.7984 20.1116 23.6756 18.2295 23.7841 16.2281L25.6558 18.1303C25.1737 20.2311 24.0054 21.6726 22.7433 22.9404L13.6593 31.7986H16.8822L24.51 24.5738C25.3002 23.7836 26.9506 21.9007 27.4653 19.9692L31.9955 24.5738V21.3498L21.6833 10.4573C20.3129 8.99488 18.4308 8.11809 16.4295 8.00996L18.7561 5.71949L18.3317 6.1383C20.4325 6.62936 21.8741 7.79209 23.1418 9.0553L32.0045 18.1359V14.9119L24.7798 7.28297C23.9896 6.49277 22.1077 4.84236 20.1762 4.32873L24.7741 -0.201416H21.5512L10.4883 10.2756C9.12428 11.6328 8.31217 13.4476 8.20912 15.369L6.34085 13.4669ZM21.3356 15.798C21.3356 16.8543 21.0224 17.8869 20.4355 18.7651C19.8487 19.6434 19.0146 20.3279 18.0387 20.7322C17.0628 21.1364 15.989 21.2421 14.953 21.0361C13.917 20.83 12.9654 20.3214 12.2185 19.5744C11.4716 18.8275 10.9629 17.8759 10.7569 16.8399C10.5508 15.8039 10.6566 14.7301 11.0608 13.7542C11.465 12.7784 12.1495 11.9443 13.0278 11.3574C13.9061 10.7706 14.9386 10.4573 15.9949 10.4573C17.4113 10.4576 18.7695 11.0204 19.771 12.0219C20.7725 13.0234 21.3353 14.3817 21.3356 15.798Z" fill="#DB001C"/>
<path d="M6.33634 13.4446C6.82627 11.3449 7.989 9.90218 9.2522 8.63898L18.3317 -0.223755H15.1088L7.47988 7.001C6.68967 7.7912 5.03927 9.67302 4.52563 11.6045L6.33634 13.4446Z" fill="#6F1F88"/>
<path d="M11.8305 27.2506L13.6706 25.4444C11.5709 24.9534 10.1282 23.7906 8.865 22.5286L0.0022583 13.4446V16.6675L7.22701 24.2953C8.01722 25.0855 9.89904 26.7359 11.8305 27.2506Z" fill="#E00A6F"/>
<path d="M20.1762 4.30969L18.7561 5.70046L18.3317 6.11927C20.4325 6.61032 21.8741 7.77306 23.1418 9.03626L32.0045 18.1169V14.8928L24.7798 7.26394C23.9895 6.47373 22.1077 4.82333 20.1762 4.30969Z" fill="#11B0E5"/>
<path d="M25.6671 18.1302L27.4766 19.9692C26.9619 21.9007 25.3115 23.7836 24.5213 24.5738L16.8935 31.7986H13.6706L22.7546 22.9404C24.0167 21.6726 25.185 20.2311 25.6671 18.1302Z" fill="#5CA647"/>
</g>
<defs>
<clipPath id="clip0_336_8041">
<rect width="168" height="32" fill="white"/>
</clipPath>
</defs>
</svg>
